<svg width="41" height="40" viewBox="0 0 41 40" fill="none" xmlns="http://www.w3.org/2000/svg">
<g clip-path="url(#clip0_44_152)">
<path d="M32.1 27.05C32.1 27.05 29.25 23.525 29.25 20V16.25C29.25 14.062 28.3808 11.9635 26.8336 10.4164C25.2864 8.86919 23.188 8 21 8V8C18.812 8 16.7135 8.86919 15.1664 10.4164C13.6192 11.9635 12.75 14.062 12.75 16.25V20C12.75 23.525 9.97499 26.975 9.89999 27.05C9.81386 27.1678 9.76139 27.3068 9.74818 27.4521C9.73497 27.5974 9.76152 27.7436 9.82499 27.875C9.89583 27.9902 9.99514 28.0852 10.1134 28.1509C10.2316 28.2166 10.3647 28.2507 10.5 28.25H31.5C31.6447 28.2514 31.7864 28.2092 31.9068 28.129C32.0272 28.0487 32.1206 27.9341 32.175 27.8C32.2366 27.6812 32.2623 27.547 32.2489 27.4139C32.2356 27.2807 32.1839 27.1543 32.1 27.05Z" fill="#727272"/>
<path d="M18.075 29.75C18.2409 30.398 18.6192 30.9717 19.1493 31.3795C19.6795 31.7874 20.3311 32.0058 20.9999 32C21.666 31.9945 22.312 31.7718 22.8399 31.3657C23.3678 30.9596 23.7488 30.3923 23.9249 29.75H18.075Z" fill="#727272"/>
</g>
<defs>
<clipPath id="clip0_44_152">
<rect width="24" height="24" fill="white" transform="translate(9 8)"/>
</clipPath>
</defs>
</svg>
