<svg width="24" height="23" viewBox="0 0 24 23" fill="none" xmlns="http://www.w3.org/2000/svg">
<g clip-path="url(#clip0_84_89)">
<path d="M18.75 0H5.25C4.45435 0 3.69129 0.294999 3.12868 0.820101C2.56607 1.3452 2.25 2.05739 2.25 2.8V22.05C2.24998 22.1128 2.26808 22.1745 2.30241 22.2286C2.33674 22.2826 2.38603 22.3271 2.4451 22.3572C2.50417 22.3874 2.57085 22.4021 2.63814 22.3999C2.70542 22.3977 2.77083 22.3786 2.8275 22.3447L12 16.8658L21.1725 22.3447C21.2329 22.3808 21.3032 22.4 21.375 22.4C21.4745 22.4 21.5698 22.3631 21.6402 22.2975C21.7105 22.2318 21.75 22.1428 21.75 22.05V2.8C21.75 2.05739 21.4339 1.3452 20.8713 0.820101C20.3087 0.294999 19.5456 0 18.75 0V0Z" fill="#727272"/>
</g>
<defs>
<clipPath id="clip0_84_89">
<rect width="24" height="22.4" fill="white"/>
</clipPath>
</defs>
</svg>
