<svg width="24" height="24" viewBox="0 0 24 24" fill="#727272" xmlns="http://www.w3.org/2000/svg">
<path d="M21 0H3C1.34531 0 0 1.34531 0 3V16.5C0 18.1547 1.34531 19.5 3 19.5H7.5V23.4375C7.5 23.7703 7.77187 24 8.0625 24C8.175 24 8.29219 23.9672 8.39531 23.8875L14.25 19.5H21C22.6547 19.5 24 18.1547 24 16.5V3C24 1.34531 22.6547 0 21 0ZM22.5 16.5C22.5 17.325 21.825 18 21 18H13.7484L13.35 18.3L9 21.5625V18H3C2.175 18 1.5 17.325 1.5 16.5V3C1.5 2.175 2.175 1.5 3 1.5H21C21.825 1.5 22.5 2.175 22.5 3V16.5ZM13.125 11.25H6.375C6.16875 11.25 6 11.4187 6 11.625V12.375C6 12.5813 6.16875 12.75 6.375 12.75H13.125C13.3313 12.75 13.5 12.5813 13.5 12.375V11.625C13.5 11.4187 13.3313 11.25 13.125 11.25ZM17.625 6.75H6.375C6.16875 6.75 6 6.91875 6 7.125V7.875C6 8.08125 6.16875 8.25 6.375 8.25H17.625C17.8312 8.25 18 8.08125 18 7.875V7.125C18 6.91875 17.8312 6.75 17.625 6.75Z" fill="#727272"/>
</svg>
