<svg width="25" height="24" viewBox="0 0 25 24" fill="none" xmlns="http://www.w3.org/2000/svg">
<g clip-path="url(#clip0_148_808)">
<path d="M21.0616 4.45049C22.0929 4.45049 22.9734 4.8154 23.7033 5.54522C24.4331 6.27503 24.7901 7.14764 24.7742 8.16305V18.087C24.7742 19.1183 24.4172 19.9909 23.7033 20.7048C22.9893 21.4188 22.1088 21.7837 21.0616 21.7996H3.71256C2.68129 21.7996 1.80868 21.4347 1.09473 20.7048C0.380775 19.975 0.0158656 19.1024 0 18.087V8.16305C0 7.13178 0.36491 6.25917 1.09473 5.54522C1.82455 4.83126 2.69716 4.46635 3.71256 4.45049H5.68783L6.92535 3.21297C7.29026 2.84806 7.75036 2.55454 8.30566 2.33242C8.86096 2.11031 9.39246 1.99131 9.90016 1.97545H14.874C15.3976 1.97545 15.937 2.09444 16.4923 2.33242C17.0476 2.57041 17.5077 2.86392 17.8726 3.21297L19.1102 4.45049H21.0616ZM12.399 16.8495C13.5889 16.8495 14.6043 16.429 15.4452 15.5882C16.2861 14.7473 16.7144 13.724 16.7303 12.5182C16.7303 11.3124 16.3099 10.289 15.469 9.44816C14.6281 8.60728 13.6048 8.17891 12.399 8.16305C11.1932 8.14718 10.1699 8.57555 9.32899 9.44816C8.48812 10.3208 8.06768 11.3441 8.06768 12.5182C8.06768 13.7081 8.48812 14.7314 9.32899 15.5882C10.1699 16.4449 11.1932 16.8653 12.399 16.8495ZM19.8479 11.0189C20.308 11.0189 20.6888 10.8681 20.9902 10.5667C21.2917 10.2652 21.4424 9.88447 21.4424 9.42436C21.4424 8.96426 21.2838 8.57555 20.9664 8.25824C20.6491 7.94093 20.2763 7.78227 19.8479 7.78227C19.3878 7.78227 18.9991 7.94093 18.6818 8.25824C18.3645 8.57555 18.2058 8.96426 18.2058 9.42436C18.2058 9.85274 18.3645 10.2256 18.6818 10.5429C18.9991 10.8602 19.3878 11.0189 19.8479 11.0189Z" fill="#232323"/>
</g>
<defs>
<clipPath id="clip0_148_808">
<rect width="24.7742" height="24" fill="white"/>
</clipPath>
</defs>
</svg>
