<svg width="24" height="23" viewBox="0 0 24 23" fill="none" xmlns="http://www.w3.org/2000/svg">
<path d="M17.2523 12.853C17.1673 13.1813 16.9249 13.9927 16.5251 15.2872H17.9906C17.6134 14.0744 17.4009 13.3885 17.3531 13.2295C17.3054 13.0705 17.2718 12.945 17.2523 12.853Z" fill="#727272"/>
<path d="M21.75 9H12.75C12.2529 9.0006 11.7763 9.19833 11.4248 9.54983C11.0733 9.90133 10.8756 10.3779 10.875 10.875V19.125C10.8756 19.6221 11.0733 20.0987 11.4248 20.4502C11.7763 20.8017 12.2529 20.9994 12.75 21H17.8875L20.793 22.9369C20.8495 22.9743 20.915 22.9956 20.9826 22.9988C21.0503 23.0019 21.1175 22.9867 21.1772 22.9547C21.2369 22.9227 21.2868 22.8751 21.3216 22.8171C21.3564 22.759 21.3749 22.6926 21.375 22.6249V21H21.75C22.2471 20.9994 22.7237 20.8017 23.0752 20.4502C23.4267 20.0987 23.6244 19.6221 23.625 19.125V10.875C23.6244 10.3779 23.4267 9.90133 23.0752 9.54983C22.7237 9.19833 22.2471 9.0006 21.75 9ZM18.6825 17.625L18.2745 16.287H16.2255L15.8179 17.625H14.5335L16.5176 11.9801H17.9752L19.9665 17.625H18.6825Z" fill="#727272"/>
<path d="M5.60278 5.54676C5.70677 5.90551 5.8589 6.24851 6.05503 6.56639C6.21396 6.83969 6.40439 7.09342 6.62241 7.32239C6.83101 7.09574 7.01029 6.84376 7.15603 6.57239C7.33958 6.2516 7.47598 5.90605 7.56103 5.54639L5.60278 5.54676Z" fill="white"/>
<path d="M11.25 0.75H2.25C1.7529 0.750595 1.27633 0.948331 0.924832 1.29983C0.573331 1.65133 0.375595 2.1279 0.375 2.625V10.875C0.375595 11.3721 0.573331 11.8487 0.924832 12.2002C1.27633 12.5517 1.7529 12.7494 2.25 12.75H2.625V14.3749C2.62499 14.4428 2.64341 14.5094 2.6783 14.5676C2.71318 14.6259 2.76323 14.6735 2.82309 14.7056C2.88295 14.7376 2.95038 14.7528 3.01819 14.7495C3.086 14.7462 3.15165 14.7246 3.20813 14.6869L6.1125 12.75H10.125V10.875C10.1259 10.1791 10.4027 9.51192 10.8948 9.01983C11.3869 8.52774 12.0541 8.25089 12.75 8.25H13.125V2.625C13.1244 2.1279 12.9267 1.65133 12.5752 1.29983C12.2237 0.948331 11.7471 0.750595 11.25 0.75ZM9.28275 10.0095C8.32854 9.74414 7.43446 9.29722 6.6495 8.69325C5.83922 9.3023 4.92035 9.75143 3.942 10.0166C3.81043 9.64992 3.61882 9.30763 3.375 9.00375C4.26909 8.83245 5.12044 8.48592 5.88 7.98413C5.54998 7.62597 5.26429 7.22936 5.02913 6.80288C4.80734 6.40585 4.63278 5.98423 4.509 5.54663H4.374C4.05 5.54663 3.74625 5.56012 3.47625 5.58675V4.5405C3.78319 4.57576 4.09206 4.59154 4.401 4.58775H6.00787V4.15575C6.00893 4.00171 5.9955 3.8479 5.96775 3.69638H7.1355C7.10772 3.84562 7.09428 3.99719 7.09538 4.149V4.58775H8.8035C9.11481 4.59153 9.42605 4.57575 9.73538 4.5405V5.5875C9.43913 5.55896 9.14161 5.54557 8.844 5.54738H8.68875C8.5848 6.00791 8.4209 6.45283 8.20125 6.87075C7.98955 7.27279 7.72881 7.64702 7.425 7.98487C8.16311 8.47786 8.99931 8.805 9.876 8.94375C9.61864 9.26238 9.41797 9.62288 9.28275 10.0095Z" fill="#727272"/>
</svg>
