<svg width="41" height="40" viewBox="0 0 41 40" fill="#727272" xmlns="http://www.w3.org/2000/svg">
<path d="M32.2498 11.25H29.9165V22.3333C29.9165 22.9522 29.6706 23.5457 29.2331 23.9832C28.7955 24.4208 28.202 24.6667 27.5831 24.6667H20.5604L16.4771 27.5833H20.9915L27.8445 32.152C27.9323 32.2101 28.0342 32.2434 28.1395 32.2483C28.2447 32.2532 28.3492 32.2295 28.4421 32.1797C28.5349 32.1299 28.6125 32.056 28.6667 31.9656C28.7209 31.8753 28.7496 31.772 28.7498 31.6667V27.5833H32.2498C32.5592 27.5833 32.856 27.4604 33.0748 27.2416C33.2936 27.0228 33.4165 26.7261 33.4165 26.4167V12.4167C33.4165 12.1072 33.2936 11.8105 33.0748 11.5917C32.856 11.3729 32.5592 11.25 32.2498 11.25Z" fill="#727272"/>
<path d="M27.5833 7.75H7.74992C7.4405 7.75 7.14375 7.87292 6.92496 8.09171C6.70617 8.3105 6.58325 8.60725 6.58325 8.91667V22.3333C6.58325 22.6428 6.70617 22.9395 6.92496 23.1583C7.14375 23.3771 7.4405 23.5 7.74992 23.5H11.2499V28.75C11.2499 28.8572 11.2794 28.9623 11.3352 29.0538C11.391 29.1453 11.4709 29.2196 11.5662 29.2687C11.6615 29.3177 11.7685 29.3396 11.8754 29.3319C11.9822 29.3241 12.0849 29.2871 12.1722 29.2248L20.1866 23.5H27.5833C27.8927 23.5 28.1894 23.3771 28.4082 23.1583C28.627 22.9395 28.7499 22.6428 28.7499 22.3333V8.91667C28.7499 8.60725 28.627 8.3105 28.4082 8.09171C28.1894 7.87292 27.8927 7.75 27.5833 7.75Z" fill="#727272"/>
</svg>
