<svg width="24" height="24" viewBox="0 0 24 24" fill="none" xmlns="http://www.w3.org/2000/svg">
<path d="M22.5 4.5H20.5V14C20.5 14.5304 20.2893 15.0391 19.9142 15.4142C19.5391 15.7893 19.0304 16 18.5 16H12.4805L8.98047 18.5H12.85L18.724 22.416C18.7993 22.4658 18.8866 22.4944 18.9768 22.4985C19.067 22.5027 19.1566 22.4824 19.2362 22.4397C19.3158 22.3971 19.3823 22.3337 19.4288 22.2563C19.4752 22.1788 19.4998 22.0903 19.5 22V18.5H22.5C22.7652 18.5 23.0195 18.3946 23.2071 18.2071C23.3946 18.0196 23.5 17.7652 23.5 17.5V5.5C23.5 5.23478 23.3946 4.98043 23.2071 4.79289C23.0195 4.60536 22.7652 4.5 22.5 4.5Z" fill="#727272"/>
<path d="M18.5 1.5H1.5C1.23478 1.5 0.98043 1.60536 0.792893 1.79289C0.605357 1.98043 0.5 2.23478 0.5 2.5V14C0.5 14.2652 0.605357 14.5196 0.792893 14.7071C0.98043 14.8946 1.23478 15 1.5 15H4.5V19.5C4.49999 19.5919 4.52529 19.6819 4.57312 19.7604C4.62094 19.8388 4.68945 19.9025 4.77112 19.9446C4.85279 19.9866 4.94447 20.0054 5.03609 19.9987C5.12771 19.9921 5.21573 19.9604 5.2905 19.907L12.16 15H18.5C18.7652 15 19.0196 14.8946 19.2071 14.7071C19.3946 14.5196 19.5 14.2652 19.5 14V2.5C19.5 2.23478 19.3946 1.98043 19.2071 1.79289C19.0196 1.60536 18.7652 1.5 18.5 1.5Z" fill="#727272"/>
</svg>
