<svg width="24" height="20" viewBox="0 0 24 20" fill="#727272" xmlns="http://www.w3.org/2000/svg">
<path d="M23.9472 13.8081L22.6958 5.87347C22.3636 3.98873 20.8808 2.4696 18.9211 2.0061H18.9185C14.3685 0.932211 9.63096 0.932211 5.08097 2.0061C3.11897 2.4696 1.63659 3.98835 1.30435 5.87347L0.0529711 13.8081C-0.333654 16.0022 1.4551 17.9998 3.80672 17.9998C5.66934 17.9998 7.32309 16.8722 7.91221 15.2008L8.19421 14.3998H15.8067L16.0876 15.2008C16.6771 16.8722 18.3308 17.9998 20.1935 17.9998C22.5451 17.9998 24.3338 16.0022 23.9472 13.8081ZM10.5001 8.84985C10.5001 8.96919 10.4527 9.08365 10.3683 9.16804C10.2839 9.25244 10.1694 9.29985 10.0501 9.29985H8.10009V11.2498C8.10009 11.3692 8.05268 11.4837 7.96829 11.568C7.8839 11.6524 7.76944 11.6998 7.65009 11.6998H6.75009C6.63074 11.6998 6.51628 11.6524 6.43189 11.568C6.3475 11.4837 6.30009 11.3692 6.30009 11.2498V9.29985H4.35009C4.23075 9.29985 4.11629 9.25244 4.03189 9.16804C3.9475 9.08365 3.90009 8.96919 3.90009 8.84985V7.94985C3.90009 7.8305 3.9475 7.71604 4.03189 7.63165C4.11629 7.54726 4.23075 7.49985 4.35009 7.49985H6.30009V5.54985C6.30009 5.4305 6.3475 5.31604 6.43189 5.23165C6.51628 5.14726 6.63074 5.09985 6.75009 5.09985H7.65009C7.76944 5.09985 7.8839 5.14726 7.96829 5.23165C8.05268 5.31604 8.10009 5.4305 8.10009 5.54985V7.49985H10.0501C10.1694 7.49985 10.2839 7.54726 10.3683 7.63165C10.4527 7.71604 10.5001 7.8305 10.5001 7.94985V8.84985ZM16.2001 11.6998C15.9034 11.6998 15.6134 11.6119 15.3667 11.447C15.1201 11.2822 14.9278 11.048 14.8143 10.7739C14.7007 10.4998 14.671 10.1982 14.7289 9.90721C14.7868 9.61624 14.9296 9.34897 15.1394 9.13919C15.3492 8.92941 15.6165 8.78655 15.9074 8.72867C16.1984 8.67079 16.5 8.7005 16.7741 8.81403C17.0482 8.92756 17.2825 9.11982 17.4473 9.36649C17.6121 9.61316 17.7001 9.90317 17.7001 10.1998C17.7001 10.5977 17.542 10.9792 17.2607 11.2605C16.9794 11.5418 16.5979 11.6998 16.2001 11.6998ZM18.6001 8.09985C18.3034 8.09985 18.0134 8.01187 17.7667 7.84705C17.5201 7.68223 17.3278 7.44796 17.2143 7.17387C17.1007 6.89978 17.071 6.59818 17.1289 6.30721C17.1868 6.01624 17.3296 5.74897 17.5394 5.53919C17.7492 5.32941 18.0165 5.18655 18.3074 5.12867C18.5984 5.07079 18.9 5.1005 19.1741 5.21403C19.4482 5.32756 19.6825 5.51982 19.8473 5.76649C20.0121 6.01317 20.1001 6.30318 20.1001 6.59985C20.1001 6.99767 19.942 7.3792 19.6607 7.66051C19.3794 7.94181 18.9979 8.09985 18.6001 8.09985Z" fill="#727272"/>
</svg>
