<svg width="24" height="24" viewBox="0 0 24 24" fill="#727272" xmlns="http://www.w3.org/2000/svg">
<path d="M23.2965 10.128L20.328 9.75712C20.1347 9.03623 19.8479 8.34372 19.4749 7.69725L21.3124 5.33475C21.3684 5.26257 21.3962 5.1724 21.3905 5.08118C21.3848 4.98996 21.3459 4.90397 21.2812 4.83938L19.1591 2.7195C19.0945 2.65489 19.0085 2.61611 18.9173 2.61045C18.826 2.60478 18.7359 2.63263 18.6637 2.68875L16.3013 4.52625C15.6553 4.15408 14.9634 3.86791 14.2432 3.675L13.872 0.704625C13.8609 0.613742 13.817 0.530051 13.7485 0.469332C13.6799 0.408612 13.5916 0.37506 13.5 0.375H10.5C10.4086 0.375026 10.3204 0.40842 10.2519 0.46891C10.1834 0.5294 10.1393 0.612821 10.128 0.7035L9.75675 3.675C9.03597 3.86795 8.34367 4.15478 7.69763 4.52812L5.33512 2.69063C5.26299 2.6345 5.17284 2.60666 5.08162 2.61232C4.9904 2.61798 4.90439 2.65676 4.83975 2.72137L2.7195 4.84088C2.65483 4.90547 2.61598 4.99146 2.61025 5.08268C2.60452 5.1739 2.6323 5.26407 2.68837 5.33625L4.52588 7.69875C4.1539 8.34493 3.86786 9.0369 3.675 9.75712L0.704625 10.128C0.613742 10.1391 0.530051 10.183 0.469332 10.2515C0.408612 10.3201 0.37506 10.4084 0.375 10.5V13.5C0.375026 13.5914 0.40842 13.6796 0.46891 13.7481C0.5294 13.8166 0.612821 13.8607 0.7035 13.872L3.67387 14.2429C3.86705 14.9638 4.15373 15.6563 4.52663 16.3027L2.68913 18.6652C2.633 18.7374 2.60516 18.8275 2.61082 18.9188C2.61648 19.01 2.65526 19.096 2.71987 19.1606L4.84125 21.282C4.90589 21.3466 4.9919 21.3854 5.08312 21.3911C5.17434 21.3967 5.26449 21.3689 5.33663 21.3127L7.69913 19.4753C8.34542 19.848 9.03766 20.1347 9.75825 20.328L10.1295 23.2969C10.1409 23.3872 10.1848 23.4704 10.2529 23.5307C10.3211 23.5911 10.4089 23.6246 10.5 23.625H13.5C13.5914 23.625 13.6796 23.5916 13.7481 23.5311C13.8166 23.4706 13.8607 23.3872 13.872 23.2965L14.2429 20.328C14.9639 20.1349 15.6564 19.8481 16.3027 19.4749L18.6652 21.3124C18.7374 21.3685 18.8275 21.3963 18.9188 21.3907C19.01 21.385 19.096 21.3462 19.1606 21.2816L21.282 19.1603C21.3467 19.0957 21.3855 19.0097 21.3912 18.9184C21.397 18.8272 21.3692 18.7371 21.3131 18.6649L19.4756 16.3024C19.8484 15.6558 20.1351 14.9633 20.3284 14.2425L23.2972 13.8716C23.3877 13.8601 23.4709 13.8161 23.5312 13.7477C23.5916 13.6793 23.6249 13.5912 23.625 13.5V10.5C23.625 10.4086 23.5916 10.3204 23.5311 10.2519C23.4706 10.1834 23.3872 10.1393 23.2965 10.128ZM12 16.125C11.1842 16.125 10.3866 15.8831 9.70827 15.4298C9.02992 14.9766 8.50121 14.3323 8.189 13.5786C7.87679 12.8248 7.7951 11.9954 7.95426 11.1953C8.11343 10.3951 8.50629 9.66008 9.08318 9.08318C9.66008 8.50629 10.3951 8.11343 11.1953 7.95426C11.9954 7.7951 12.8248 7.87679 13.5786 8.189C14.3323 8.50121 14.9766 9.02992 15.4298 9.70827C15.8831 10.3866 16.125 11.1842 16.125 12C16.125 13.094 15.6904 14.1432 14.9168 14.9168C14.1432 15.6904 13.094 16.125 12 16.125Z" fill="#727272"/>
</svg>
