<svg width="24" height="23" viewBox="0 0 24 23" fill="#727272" xmlns="http://www.w3.org/2000/svg">
<g clip-path="url(#clip0_84_85)">
<path d="M12 11.9001C13.63 11.9001 15.07 12.2641 16.24 12.7401C17.32 13.1881 18 14.1961 18 15.2881V16.8001H6V15.2974C6 14.1961 6.68 13.1881 7.76 12.7494C8.93 12.2641 10.37 11.9001 12 11.9001ZM4 12.1334C5.1 12.1334 6 11.2934 6 10.2668C6 9.2401 5.1 8.4001 4 8.4001C2.9 8.4001 2 9.2401 2 10.2668C2 11.2934 2.9 12.1334 4 12.1334ZM5.13 13.1601C4.76 13.1041 4.39 13.0668 4 13.0668C3.01 13.0668 2.07 13.2628 1.22 13.6081C0.857713 13.7526 0.548924 13.9933 0.332018 14.3003C0.115113 14.6073 -0.000343686 14.967 7.68494e-07 15.3348V16.8001H4.5V15.2974C4.5 14.5228 4.73 13.7948 5.13 13.1601ZM20 12.1334C21.1 12.1334 22 11.2934 22 10.2668C22 9.2401 21.1 8.4001 20 8.4001C18.9 8.4001 18 9.2401 18 10.2668C18 11.2934 18.9 12.1334 20 12.1334ZM24 15.3348C24 14.5788 23.52 13.9068 22.78 13.6081C21.9031 13.251 20.9567 13.0667 20 13.0668C19.61 13.0668 19.24 13.1041 18.87 13.1601C19.27 13.7948 19.5 14.5228 19.5 15.2974V16.8001H24V15.3348ZM12 5.6001C13.66 5.6001 15 6.85076 15 8.4001C15 9.94943 13.66 11.2001 12 11.2001C10.34 11.2001 9 9.94943 9 8.4001C9 6.85076 10.34 5.6001 12 5.6001Z" fill="#727272"/>
</g>
<defs>
<clipPath id="clip0_84_85">
<rect width="24" height="22.4" fill="white"/>
</clipPath>
</defs>
</svg>
