<svg width="20" height="20" viewBox="0 0 20 20" fill="#727272" xmlns="http://www.w3.org/2000/svg">
<g clip-path="url(#clip0_181_39)">
<path d="M18.3194 2.93058C17.7684 2.38091 17.1116 1.94891 16.3886 1.66079C15.6657 1.37267 14.8917 1.23444 14.1137 1.25449C13.3358 1.27454 12.57 1.45245 11.8628 1.77742C11.1557 2.10239 10.5219 2.56764 10 3.14496C9.48708 2.5756 8.86531 2.11473 8.17139 1.78956C7.47746 1.46439 6.72543 1.28149 5.95968 1.25166C5.19392 1.22184 4.42995 1.34568 3.71283 1.61589C2.99571 1.8861 2.33998 2.2972 1.78431 2.82494C1.22865 3.35267 0.784311 3.98636 0.477515 4.6886C0.170718 5.39085 0.00767841 6.14742 -0.00198509 6.9137C-0.0116486 7.67997 0.13226 8.44042 0.42125 9.15018C0.710239 9.85994 1.13846 10.5046 1.68064 11.0462L9.55564 18.9212C9.67284 19.0384 9.83178 19.1042 9.99751 19.1042C10.1632 19.1042 10.3222 19.0384 10.4394 18.9212L18.3144 11.0462C18.8472 10.5134 19.2699 9.8808 19.5583 9.18462C19.8467 8.48843 19.9951 7.74226 19.9951 6.98871C19.9951 6.23516 19.8467 5.48899 19.5583 4.7928C19.2699 4.09661 18.8472 3.46404 18.3144 2.93121L18.3194 2.93058Z" fill="#727272"/>
</g>
<defs>
<clipPath id="clip0_181_39">
<rect width="20" height="20" fill="white"/>
</clipPath>
</defs>
</svg>
