<svg width="21" height="24" viewBox="0 0 21 24" fill="#727272" xmlns="http://www.w3.org/2000/svg">
<g clip-path="url(#clip0_133_64)">
<path d="M17.2842 3.03877C19.2614 4.98355 20.25 7.33349 20.25 10.0886C20.25 12.8437 19.2614 15.1936 17.2842 17.1384L10.1128 24.1882L2.9901 17.1384C0.996699 15.1936 0 12.8437 0 10.0886C0 7.33349 0.996699 4.98355 2.9901 3.03877C4.98349 1.09399 7.37395 0.121605 10.1615 0.121605C12.949 0.121605 15.3232 1.09399 17.2842 3.03877ZM10.1128 13.3947C11.0042 13.3947 11.7578 13.0949 12.3736 12.4953C13.0057 11.8632 13.3217 11.1177 13.3217 10.2588C13.3217 9.39982 13.0057 8.65432 12.3736 8.02227C11.7416 7.39021 10.988 7.07419 10.1128 7.07419C9.27011 7.07419 8.53271 7.39021 7.90066 8.02227C7.26861 8.65432 6.95258 9.39982 6.95258 10.2588C6.95258 11.1177 7.26861 11.8632 7.90066 12.4953C8.51651 13.0949 9.2539 13.3947 10.1128 13.3947Z" fill="#727272"/>
</g>
<defs>
<clipPath id="clip0_133_64">
<rect width="20.25" height="24" fill="white"/>
</clipPath>
</defs>
</svg>
