<svg width="32" height="32" viewBox="0 0 32 32" fill="#727272" xmlns="http://www.w3.org/2000/svg">
<path d="M16.1271 9.31494C23.2241 9.31494 26.8361 9.31494 26.9621 9.34694C27.5331 9.53694 28.0081 9.85794 28.0081 10.6459C28.0081 11.4439 27.5491 11.7489 26.9621 11.9449C26.8361 11.9769 23.2241 11.9769 16.1581 11.9769C9.09208 11.9769 5.48108 11.9769 5.35408 11.9449C4.78408 11.7549 4.30908 11.4329 4.30908 10.6449C4.30908 10.1849 4.42908 9.95494 4.65708 9.72694C4.80808 9.57694 5.10408 9.34694 5.32308 9.34694C5.38608 9.34694 10.2021 9.31494 16.1271 9.31494ZM16.1271 17.2359C23.2241 17.2359 26.8361 17.2359 26.9621 17.2679C27.5331 17.4579 28.0081 17.7789 28.0081 18.5669C28.0081 19.3649 27.5491 19.6699 26.9621 19.8659C26.8361 19.8969 23.2241 19.8969 16.1581 19.8969C9.09208 19.8969 5.48108 19.8969 5.35408 19.8659C4.78408 19.6759 4.30908 19.3539 4.30908 18.5659C4.30908 18.1059 4.42908 17.8759 4.65708 17.6479C4.80808 17.4969 5.10408 17.2679 5.32308 17.2679C5.38608 17.2679 10.2021 17.2359 16.1271 17.2359ZM16.1271 25.1559C10.2021 25.1559 5.38708 25.1889 5.32308 25.1889C4.92308 25.1889 4.55608 25.6449 4.40408 25.9489C4.30908 26.1389 4.30908 26.1709 4.30908 26.4879C4.30908 27.2859 4.76808 27.5909 5.35408 27.7869C5.48108 27.8179 9.09408 27.8179 16.1581 27.8179C23.2221 27.8179 26.8361 27.8179 26.9621 27.7869C27.5331 27.5969 28.0081 27.2749 28.0081 26.4869C28.0081 25.6889 27.5491 25.3839 26.9621 25.1889C26.8361 25.1569 23.2241 25.1569 16.1271 25.1569V25.1559Z" fill="#727272"/>
</svg>
