<svg width="32" height="31" viewBox="0 0 32 31" fill="#727272" xmlns="http://www.w3.org/2000/svg">
<g clip-path="url(#clip0_44_155)">
<path d="M16.0154 0.952806C22.6142 6.67039 27.7374 11.0662 31.3852 14.1401C31.7951 14.468 32 14.8779 32 15.3697C32 15.8001 31.8463 16.1792 31.5389 16.5071C31.2315 16.835 30.8626 16.9887 30.4323 16.9682H27.2046V28.1574C27.2046 28.5878 27.0509 28.9669 26.7435 29.2948C26.4361 29.6227 26.0672 29.7866 25.6369 29.7866H20.8415C20.3906 29.7866 20.0115 29.6227 19.7041 29.2948C19.3967 28.9669 19.2328 28.5878 19.2123 28.1574V21.7636H12.7877V28.1574C12.7877 28.5878 12.634 28.9669 12.3266 29.2948C12.0192 29.6227 11.6503 29.7866 11.22 29.7866H6.42459C5.99424 29.7866 5.61511 29.6227 5.28722 29.2948C4.95933 28.9669 4.79539 28.5878 4.79539 28.1574V16.9682H1.6292C1.17835 16.9682 0.79923 16.8145 0.491834 16.5071C0.184437 16.1997 0.0204921 15.8206 -1.04983e-06 15.3697C-0.0204942 14.9189 0.17419 14.509 0.584053 14.1401L16.0154 0.952806Z" fill="#727272"/>
</g>
<defs>
<clipPath id="clip0_44_155">
<rect width="32" height="31" fill="white"/>
</clipPath>
</defs>
</svg>
