<svg width="18" height="24" viewBox="0 0 18 24" fill="#727272" xmlns="http://www.w3.org/2000/svg">
<g clip-path="url(#clip0_148_818)">
<path d="M9.01234 17.4813C7.5967 17.4813 6.38683 16.9793 5.38271 15.9751C4.3786 14.971 3.86831 13.7612 3.85185 12.3455V4.61712C3.85185 3.20149 4.36214 1.99161 5.38271 0.987495C6.40329 -0.0166206 7.61316 -0.526909 9.01234 -0.543369C10.4115 -0.55983 11.6214 -0.0495415 12.642 0.987495C13.6625 2.02453 14.1646 3.23441 14.1481 4.61712V12.3455C14.1481 13.7612 13.6461 14.971 12.642 15.9751C11.6379 16.9793 10.428 17.4813 9.01234 17.4813ZM18 12.3455C18 14.5842 17.2593 16.543 15.7778 18.2221C14.2963 19.9011 12.4609 20.9052 10.2716 21.2344V22.6171H14.1481C14.4938 22.6171 14.7901 22.7488 15.037 23.0122C15.2839 23.2756 15.4156 23.5801 15.4321 23.9258C15.4486 24.2714 15.3169 24.5677 15.037 24.8147C14.7572 25.0616 14.4609 25.1933 14.1481 25.2097H3.85185C3.50617 25.2097 3.20164 25.078 2.93827 24.8147C2.67489 24.5513 2.55144 24.255 2.5679 23.9258C2.58436 23.5965 2.70782 23.292 2.93827 23.0122C3.16872 22.7324 3.47325 22.6007 3.85185 22.6171H7.72839V21.2344C5.52263 20.9217 3.67901 19.9175 2.19753 18.2221C0.716046 16.5266 -0.0164642 14.5677 -3.32459e-06 12.3455V9.77762C-3.32459e-06 9.43194 0.131684 9.12741 0.395058 8.86404C0.658433 8.60066 0.96296 8.46898 1.30864 8.46898C1.65432 8.46898 1.95061 8.60066 2.19753 8.86404C2.44444 9.12741 2.5679 9.43194 2.5679 9.77762V12.3455C2.5679 14.1068 3.20164 15.613 4.46913 16.864C5.73662 18.1151 7.25103 18.7488 9.01234 18.7653C10.7737 18.7817 12.2881 18.148 13.5556 16.864C14.823 15.5801 15.4486 14.0739 15.4321 12.3455V9.77762C15.4321 9.43194 15.5638 9.12741 15.8272 8.86404C16.0905 8.60066 16.3951 8.46898 16.7407 8.46898C17.0864 8.46898 17.3827 8.60066 17.6296 8.86404C17.8765 9.12741 18 9.43194 18 9.77762V12.3455Z" fill="#232323"/>
</g>
<defs>
<clipPath id="clip0_148_818">
<rect width="18" height="24" fill="white"/>
</clipPath>
</defs>
</svg>
