<svg width="24" height="16" viewBox="0 0 24 16" fill="#727272" xmlns="http://www.w3.org/2000/svg">
<path d="M23.2935 0.7861C21.8389 0.21665 20.3831 4.20965e-08 18.9281 4.20965e-08C14.3092 -0.000349958 9.69075 2.1819 5.07187 2.1819C3.9135 2.1819 2.75587 2.0447 1.5975 1.7017C1.46737 1.6632 1.33687 1.645 1.20937 1.645C0.564 1.645 0 2.1112 0 2.75835V13.8624C0 14.3045 0.271125 14.7234 0.7065 14.8935C2.16112 15.4633 3.61687 15.68 5.07187 15.68C9.69075 15.68 14.3096 13.4977 18.9285 13.4977C20.0869 13.4977 21.2445 13.6349 22.4029 13.9779C22.533 14.0164 22.6635 14.0346 22.791 14.0346C23.4364 14.0346 24.0004 13.5684 24.0004 12.9213V1.81755C24 1.37515 23.7289 0.95655 23.2935 0.7861ZM12 11.2C10.3429 11.2 9 9.69535 9 7.84C9 5.9843 10.3432 4.48 12 4.48C13.6567 4.48 15 5.9843 15 7.84C15 9.69605 13.6564 11.2 12 11.2Z" fill="#727272"/>
</svg>
