<svg width="24" height="27" viewBox="0 0 24 27" fill="#727272" xmlns="http://www.w3.org/2000/svg">
<path d="M21.3333 1.3335C22.08 1.3335 22.7111 1.59127 23.2267 2.10683C23.7422 2.62239 24 3.25349 24 4.00016V22.6668C24 23.3779 23.7422 24.0002 23.2267 24.5335C22.7111 25.0668 22.08 25.3335 21.3333 25.3335H9.33333C8.62222 25.3335 8.00889 25.0668 7.49333 24.5335C6.97778 24.0002 6.72 23.3779 6.72 22.6668V20.0002H9.33333V22.6668H21.3333V4.00016H9.33333V8.00016H6.72V4.00016C6.72 3.25349 6.97778 2.62239 7.49333 2.10683C8.00889 1.59127 8.62222 1.3335 9.33333 1.3335H21.3333ZM12 19.2002V16.0002H0V12.0002H12V8.80016L17.3333 13.9735L12 19.2002Z" fill="#727272"/>
</svg>
