<svg width="23" height="23" viewBox="0 0 23 23" fill="#727272" xmlns="http://www.w3.org/2000/svg">
<path d="M1 10.5C1.13261 10.5 1.25979 10.4473 1.35355 10.3536C1.44732 10.2598 1.5 10.1326 1.5 10C1.50251 7.74643 2.39885 5.58588 3.99237 3.99237C5.58588 2.39886 7.74643 1.50251 10 1.5C10.1326 1.5 10.2598 1.44732 10.3536 1.35355C10.4473 1.25979 10.5 1.13261 10.5 1C10.5 0.867392 10.4473 0.740215 10.3536 0.646447C10.2598 0.552678 10.1326 0.5 10 0.5C7.4813 0.502779 5.06655 1.50456 3.28555 3.28556C1.50456 5.06655 0.502779 7.4813 0.5 10C0.5 10.1326 0.552678 10.2598 0.646446 10.3536C0.740214 10.4473 0.867392 10.5 1 10.5Z" fill="#B5A7A7"/>
<path d="M5 10.5C5.13261 10.5 5.25979 10.4473 5.35355 10.3536C5.44732 10.2598 5.5 10.1326 5.5 10C5.50132 8.80693 5.97585 7.66311 6.81948 6.81948C7.66311 5.97585 8.80693 5.50132 10 5.5C10.1326 5.5 10.2598 5.44732 10.3536 5.35355C10.4473 5.25979 10.5 5.13261 10.5 5C10.5 4.86739 10.4473 4.74021 10.3536 4.64645C10.2598 4.55268 10.1326 4.5 10 4.5C8.54184 4.50172 7.14389 5.08174 6.11281 6.11281C5.08173 7.14389 4.50172 8.54184 4.5 10C4.5 10.1326 4.55268 10.2598 4.64645 10.3536C4.74021 10.4473 4.86739 10.5 5 10.5Z" fill="#B5A7A7"/>
<path d="M8.312 14.5875L10.105 16.829C12.882 15.197 15.1962 12.8829 16.8285 10.106L14.587 8.31302C14.3244 8.10267 14.1389 7.81133 14.0593 7.48445C13.9797 7.15757 14.0105 6.81353 14.147 6.50602L16.1905 1.90602C16.3369 1.57599 16.5958 1.30872 16.921 1.15192C17.2463 0.995127 17.6166 0.95901 17.966 1.05002L21.855 2.05752C22.2179 2.15248 22.5333 2.37718 22.7417 2.68909C22.95 3.00099 23.0367 3.37845 22.9855 3.75002C22.3026 8.61003 20.0563 13.1157 16.586 16.586C13.1157 20.0563 8.61001 22.3026 3.75 22.9855C3.37859 23.037 3.00122 22.9503 2.68944 22.7421C2.37766 22.5338 2.15316 22.2183 2.0585 21.8555L1.05 17.966C0.959194 17.6166 0.995407 17.2464 1.15218 16.9212C1.30895 16.596 1.57609 16.3371 1.906 16.1905L6.505 14.15C6.81223 14.0132 7.15612 13.9819 7.483 14.061C7.80988 14.1402 8.10138 14.3253 8.312 14.5875Z" fill="#B5A7A7"/>
</svg>
