<svg width="24" height="25" viewBox="0 0 24 25" fill="#727272" xmlns="http://www.w3.org/2000/svg">
<path d="M11.8436 0.0431709C15.1479 0.00838852 17.9827 1.13882 20.3479 3.43447C22.7131 5.73013 23.9305 8.53013 24.0001 11.8345C24.0349 15.1388 22.8957 17.9823 20.5827 20.3649C18.2697 22.7475 15.461 23.9736 12.1566 24.0432C8.85227 24.078 6.00879 22.9388 3.62618 20.6258C1.24357 18.3127 0.0348775 15.504 9.48876e-05 12.1997C-0.0694703 8.89535 1.06096 6.05187 3.3914 3.66926C5.72183 1.28665 8.53923 0.0779533 11.8436 0.0431709ZM11.7914 19.3475C12.3131 19.3475 12.7392 19.1823 13.0697 18.8519C13.4001 18.5214 13.5653 18.1127 13.5653 17.6258C13.6001 17.104 13.4523 16.678 13.1218 16.3475C12.7914 16.0171 12.3653 15.8519 11.8436 15.8519H11.7914C11.3044 15.8519 10.8957 16.0084 10.5653 16.3214C10.2349 16.6345 10.0523 17.0345 10.0175 17.5214C10.0175 18.0432 10.1827 18.4693 10.5131 18.7997C10.8436 19.1301 11.2523 19.3127 11.7392 19.3475H11.7914ZM16.1218 10.791C16.574 10.1997 16.8001 9.52143 16.8001 8.75622C16.8001 7.39969 16.3305 6.391 15.3914 5.73013C14.4871 5.06926 13.3218 4.73882 11.8957 4.73882C10.7827 4.73882 9.87836 4.96491 9.1827 5.41709C8.0001 6.14752 7.37401 7.41709 7.30444 9.22578V9.33013H10.174V9.22578C10.174 8.77361 10.3131 8.30404 10.5914 7.81709C10.8697 7.39969 11.3392 7.191 12.0001 7.191C12.6957 7.191 13.1479 7.36491 13.3566 7.71274C13.6349 8.06056 13.774 8.44317 13.774 8.86056C13.774 9.17361 13.6349 9.52143 13.3566 9.90404C13.2175 10.1127 13.0436 10.2867 12.8349 10.4258L12.6784 10.5301C12.574 10.5997 12.4349 10.6953 12.261 10.8171C12.0871 10.9388 11.9131 11.0693 11.7392 11.2084C11.5653 11.3475 11.3827 11.4953 11.1914 11.6519C11.0001 11.8084 10.8523 11.9562 10.7479 12.0953C10.5044 12.4432 10.3479 13.1214 10.2784 14.1301V14.3388H13.0957V14.2345C13.0957 14.0258 13.1305 13.7823 13.2001 13.504C13.3044 13.1562 13.5479 12.8432 13.9305 12.5649L14.661 12.0953C15.461 11.504 15.9479 11.0693 16.1218 10.791Z" fill="#727272"/>
</svg>
