<svg width="24" height="24" viewBox="0 0 24 24" fill="#727272" xmlns="http://www.w3.org/2000/svg">
<g clip-path="url(#clip0_137_127)">
<path d="M19.05 16.95C20.4 15.15 21.15 13.05 21.15 10.65C21.15 4.8 16.5 0 10.65 0C4.8 0 0 4.8 0 10.65C0 16.5 4.8 21.3 10.65 21.3C13.05 21.3 15.3 20.55 16.95 19.2L21.45 23.7C21.75 24 22.2 24.15 22.5 24.15C22.8 24.15 23.25 24 23.55 23.7C24.15 23.1 24.15 22.2 23.55 21.6L19.05 16.95ZM10.65 18.15C6.45 18.15 3 14.85 3 10.65C3 6.45 6.45 3 10.65 3C14.85 3 18.3 6.45 18.3 10.65C18.3 14.85 14.85 18.15 10.65 18.15Z" fill="#727272"/>
</g>
<defs>
<clipPath id="clip0_137_127">
<rect width="24" height="24" fill="white"/>
</clipPath>
</defs>
</svg>
