<svg width="24" height="24" viewBox="0 0 24 24" fill="#727272" xmlns="http://www.w3.org/2000/svg">
<path d="M17.58 12.198C17.58 12.9701 18.2059 13.5961 18.978 13.5961C19.7501 13.5961 20.376 12.9701 20.376 12.198C20.376 11.426 19.7501 10.8 18.978 10.8C18.2059 10.8 17.58 11.426 17.58 12.198Z" fill="#383333"/>
<path d="M10.59 12.198C10.59 12.9701 11.2159 13.596 11.988 13.596C12.7601 13.596 13.386 12.9701 13.386 12.198C13.386 11.426 12.7601 10.8 11.988 10.8C11.2159 10.8 10.59 11.426 10.59 12.198Z" fill="#383333"/>
<path d="M3.59999 12.198C3.59999 12.9701 4.22589 13.596 4.99799 13.596C5.77009 13.596 6.396 12.9701 6.396 12.198C6.396 11.426 5.77009 10.8 4.99799 10.8C4.22589 10.8 3.59999 11.426 3.59999 12.198Z" fill="#383333"/>
</svg>
