<svg width="21" height="24" viewBox="0 0 21 24" fill="#727272" xmlns="http://www.w3.org/2000/svg">
<path d="M20.5713 9.83953C18.5497 9.84447 16.5778 9.20088 14.9339 7.99969V16.3772C14.9334 17.9288 14.4688 19.4432 13.6023 20.718C12.7359 21.9928 11.5088 22.9672 10.0852 23.5109C8.66163 24.0545 7.10939 24.1416 5.63604 23.7604C4.16269 23.3791 2.83846 22.5478 1.84042 21.3776C0.842388 20.2074 0.218114 18.754 0.0510762 17.2118C-0.115962 15.6696 0.182199 14.112 0.90569 12.7475C1.62918 11.3829 2.74352 10.2764 4.09969 9.5758C5.45587 8.87521 6.98925 8.61398 8.49479 8.82703V13.0406C7.80585 12.8194 7.06606 12.8261 6.38105 13.0597C5.69604 13.2933 5.10085 13.7418 4.68048 14.3413C4.26011 14.9408 4.03606 15.6606 4.04031 16.3979C4.04456 17.1351 4.27691 17.8521 4.70417 18.4466C5.13143 19.041 5.73175 19.4824 6.41941 19.7077C7.10706 19.933 7.84688 19.9308 8.53322 19.7013C9.21956 19.4718 9.81731 19.0268 10.2411 18.4298C10.6649 17.8329 10.8931 17.1145 10.8931 16.3772V0H14.9339C14.9311 0.348347 14.9597 0.696219 15.0193 1.03922C15.1597 1.80491 15.4517 2.53332 15.8773 3.17988C16.303 3.82643 16.8533 4.37756 17.4948 4.79953C18.4074 5.41551 19.4773 5.74383 20.5713 5.74359V9.83953Z" fill="#727272"/>
</svg>
