<svg width="24" height="20" viewBox="0 0 24 20" fill="#727272" xmlns="http://www.w3.org/2000/svg">
<path d="M11.3028 5.70858C11.3028 4.38662 11.7737 3.27121 12.7156 2.36236C13.6575 1.45351 14.7894 0.990828 16.1114 0.974304C17.516 0.974304 18.6644 1.46178 19.5568 2.43672C20.5482 2.2219 21.5562 1.8501 22.5808 1.32132C22.2503 2.42846 21.5645 3.30426 20.5235 3.94872C21.3993 3.81652 22.3081 3.56039 23.25 3.18033C22.6055 4.13875 21.8041 4.97324 20.8457 5.68379V6.27868C20.8457 8.52601 20.3499 10.6329 19.3585 12.5993C18.367 14.5988 16.7972 16.3008 14.649 17.7054C12.5008 19.11 10.0552 19.8123 7.3121 19.8123C4.63513 19.8123 2.19776 19.1017 0 17.6806C0.33049 17.7136 0.727079 17.7302 1.18977 17.7302C3.38753 17.7302 5.34568 17.0609 7.06423 15.7224C5.99014 15.7059 5.0565 15.3754 4.26333 14.731C3.47015 14.0865 2.92484 13.3016 2.6274 12.3762C2.84222 12.4588 3.1314 12.5002 3.49494 12.5002C3.85848 12.5002 4.27159 12.4506 4.73428 12.3514C3.66018 12.1201 2.76786 11.5665 2.0573 10.6907C1.34675 9.81492 0.983209 8.78214 0.966684 7.59237C1.56157 7.92286 2.27212 8.12116 3.09835 8.18726C1.67724 7.19578 0.966684 5.86556 0.966684 4.19658C0.966684 3.40341 1.1815 2.61849 1.61114 1.84184C4.22201 4.99802 7.51039 6.64221 11.4763 6.77441C11.3606 6.41087 11.3028 6.05559 11.3028 5.70858Z" fill="#727272"/>
</svg>
