<svg width="40" height="40" viewBox="0 0 40 40" fill="#727272" xmlns="http://www.w3.org/2000/svg">
<g clip-path="url(#clip0_44_153)">
<path d="M20 19.7143C23.7875 19.7143 26.8571 16.6446 26.8571 12.8571C26.8571 9.06964 23.7875 6 20 6C16.2125 6 13.1429 9.06964 13.1429 12.8571C13.1429 16.6446 16.2125 19.7143 20 19.7143ZM24.8 21.4286H23.9054C22.7161 21.975 21.3929 22.2857 20 22.2857C18.6071 22.2857 17.2893 21.975 16.0946 21.4286H15.2C11.225 21.4286 8 24.6536 8 28.6286V30.8571C8 32.2768 9.15179 33.4286 10.5714 33.4286H29.4286C30.8482 33.4286 32 32.2768 32 30.8571V28.6286C32 24.6536 28.775 21.4286 24.8 21.4286Z" fill="#727272"/>
</g>
<defs>
<clipPath id="clip0_44_153">
<rect width="24" height="27.4286" fill="white" transform="translate(8 6)"/>
</clipPath>
</defs>
</svg>
