<svg width="24" height="20" viewBox="0 0 24 20" fill="#727272" xmlns="http://www.w3.org/2000/svg">
<path d="M7.2 9.59995C9.52125 9.59995 11.4 7.7212 11.4 5.39995C11.4 3.0787 9.52125 1.19995 7.2 1.19995C4.87875 1.19995 3 3.0787 3 5.39995C3 7.7212 4.87875 9.59995 7.2 9.59995ZM10.08 10.8H9.76875C8.98875 11.175 8.1225 11.4 7.2 11.4C6.2775 11.4 5.415 11.175 4.63125 10.8H4.32C1.935 10.8 0 12.735 0 15.12V16.2C0 17.1937 0.80625 18 1.8 18H12.6C13.5938 18 14.4 17.1937 14.4 16.2V15.12C14.4 12.735 12.465 10.8 10.08 10.8ZM18 9.59995C19.9875 9.59995 21.6 7.98745 21.6 5.99995C21.6 4.01245 19.9875 2.39995 18 2.39995C16.0125 2.39995 14.4 4.01245 14.4 5.99995C14.4 7.98745 16.0125 9.59995 18 9.59995ZM19.8 10.8H19.6575C19.1363 10.98 18.585 11.1 18 11.1C17.415 11.1 16.8638 10.98 16.3425 10.8H16.2C15.435 10.8 14.73 11.0212 14.1112 11.3774C15.0262 12.3637 15.6 13.6725 15.6 15.12V16.56C15.6 16.6425 15.5813 16.7212 15.5775 16.8H22.2C23.1938 16.8 24 15.9937 24 15C24 12.6787 22.1213 10.8 19.8 10.8Z" fill="#727272"/>
</svg>
