<svg width="24" height="24" viewBox="0 0 24 24" fill="#727272" xmlns="http://www.w3.org/2000/svg">
<path d="M23.3536 11.1487C18.8359 4.80937 13.9096 4.125 12.0001 4.125C10.0744 4.125 5.11282 4.80975 0.642069 11.154C0.467582 11.4016 0.374265 11.6972 0.375004 12.0001C0.375743 12.303 0.470501 12.5982 0.646194 12.8449C1.81957 14.4945 6.10282 19.875 12.0001 19.875C13.8957 19.875 18.7954 19.1906 23.3491 12.8501C23.5272 12.6024 23.6234 12.3052 23.6242 12.0002C23.625 11.6951 23.5304 11.3974 23.3536 11.1487ZM12.0023 16.5C11.1123 16.5 10.2423 16.2361 9.50225 15.7416C8.76223 15.2471 8.18545 14.5443 7.84486 13.7221C7.50427 12.8998 7.41515 11.995 7.58878 11.1221C7.76242 10.2492 8.191 9.44736 8.82034 8.81802C9.44967 8.18868 10.2515 7.7601 11.1244 7.58647C11.9973 7.41283 12.9021 7.50195 13.7244 7.84254C14.5467 8.18314 15.2495 8.75991 15.7439 9.49993C16.2384 10.24 16.5023 11.11 16.5023 12C16.5023 13.1935 16.0282 14.3381 15.1843 15.182C14.3404 16.0259 13.1958 16.5 12.0023 16.5Z" fill="#727272"/>
</svg>
