<svg width="27" height="18" viewBox="0 0 27 18" fill="#727272" xmlns="http://www.w3.org/2000/svg">
<path d="M26.1741 2.81639C25.875 1.7078 24.9938 0.834703 23.8749 0.538406C21.8468 0 13.7144 0 13.7144 0C13.7144 0 5.58199 0 3.55385 0.538406C2.43494 0.83475 1.55371 1.7078 1.25461 2.81639C0.711182 4.82578 0.711182 9.01819 0.711182 9.01819C0.711182 9.01819 0.711182 13.2106 1.25461 15.22C1.55371 16.3286 2.43494 17.1653 3.55385 17.4616C5.58199 18 13.7144 18 13.7144 18C13.7144 18 21.8468 18 23.8749 17.4616C24.9938 17.1653 25.875 16.3286 26.1741 15.22C26.7176 13.2106 26.7176 9.01819 26.7176 9.01819C26.7176 9.01819 26.7176 4.82578 26.1741 2.81639ZM11.0546 12.8246V5.2118L17.8517 9.01828L11.0546 12.8246Z" fill="#727272"/>
</svg>
